<?xml version="1.0" encoding="UTF-8"?>
<svg version="1.1" xmlns="http://www.w3.org/2000/svg" width="196" height="196">
<path d="M0 0 C64.68 0 129.36 0 196 0 C196 64.68 196 129.36 196 196 C131.32 196 66.64 196 0 196 C0 131.32 0 66.64 0 0 Z " fill="#F0D523" transform="translate(0,0)"/>
<path d="M0 0 C12.54 0 25.08 0 38 0 C39.32 5.61 40.64 11.22 42 17 C42.97399219 20.64461594 43.94815553 24.28920901 44.9375 27.9296875 C46.21215035 32.71921016 47.31444514 37.54817027 48.4375 42.375 C49.97396561 48.96298947 51.65764598 55.4650393 53.625 61.9375 C56.51939291 71.49865206 59.24111458 80.92394859 59 91 C59.99 90.67 60.98 90.34 62 90 C62.17015625 88.94683594 62.3403125 87.89367187 62.515625 86.80859375 C63.87852886 78.60429642 65.53107205 70.62407606 67.765625 62.60546875 C69.49350872 56.29576457 70.97602895 49.92379035 72.5 43.5625 C74.68005099 34.47645768 76.87080644 25.39508139 79.16015625 16.3359375 C79.74040758 14.03112524 80.31005578 11.72362687 80.87109375 9.4140625 C81.14050781 8.30804688 81.40992187 7.20203125 81.6875 6.0625 C81.91824219 5.10472656 82.14898437 4.14695312 82.38671875 3.16015625 C83 1 83 1 84 0 C86.6662603 -0.08855161 89.30647114 -0.11524673 91.97265625 -0.09765625 C92.77029892 -0.0962413 93.56794159 -0.09482635 94.38975525 -0.09336853 C96.94737435 -0.08775316 99.50490718 -0.07519812 102.0625 -0.0625 C103.79231645 -0.05748698 105.52213426 -0.05292373 107.25195312 -0.04882812 C111.50133553 -0.03777875 115.75065312 -0.02050386 120 0 C118.48206824 7.69632427 116.10625924 14.96152396 113.5625 22.375 C110.2616521 32.00504666 110.2616521 32.00504666 107.46484375 41.7890625 C106.35755538 46.00365489 104.84407975 49.77500717 103.00439453 53.71582031 C101.12942764 57.97984321 99.82041135 62.43230142 98.4375 66.875 C97.94020386 68.44773682 97.94020386 68.44773682 97.43286133 70.05224609 C95.5667645 75.96416986 93.72418492 81.8834244 91.87962341 87.80209351 C90.89428441 90.96182713 89.90659312 94.12082405 88.91897583 97.27984619 C88.19912266 99.58773708 87.48401716 101.89706121 86.76928711 104.20654297 C86.31901523 105.6507684 85.86858298 107.09494385 85.41796875 108.5390625 C85.21822449 109.18921326 85.01848022 109.83936401 84.81268311 110.50921631 C83.45134697 114.85209712 81.81219191 118.77155221 80 123 C66.47 123 52.94 123 39 123 C26.37755186 84.105247 26.37755186 84.105247 20.21142578 64.93920898 C17.90023133 57.75895817 17.90023133 57.75895817 15.53125 50.59765625 C13.08725648 43.30678648 10.76227948 35.97619704 8.40942383 28.65551758 C7.76436743 26.64907946 7.11856221 24.64288352 6.47265625 22.63671875 C6.26444244 21.98839081 6.05622864 21.34006287 5.84170532 20.67208862 C4.19101632 15.54780677 2.46328693 10.45195333 0.69702148 5.36645508 C0 3 0 3 0 0 Z " fill="#FBFCFB" transform="translate(37,47)"/>
<path d="M0 0 C14.19 0 28.38 0 43 0 C48.972006 21.30920324 48.972006 21.30920324 51.0625 31.875 C52.36469817 38.42880843 54.04322724 44.70938477 56.13598633 51.05273438 C58.01776912 56.82577254 59.42498096 62.66975144 60.74414062 68.59423828 C61.56427274 72.3999826 61.56427274 72.3999826 63 76 C63.36351563 74.42025391 63.36351563 74.42025391 63.734375 72.80859375 C65.67197136 64.44813388 67.71107702 56.13498412 69.97265625 47.85546875 C72.54651679 38.19615182 74.86322623 28.47177722 77.1875 18.75 C77.46013672 17.61175781 77.73277344 16.47351563 78.01367188 15.30078125 C78.67630913 12.53398007 79.33841133 9.76705207 80 7 C80.99 7 81.98 7 83 7 C83.33 4.69 83.66 2.38 84 0 C97.86 0 111.72 0 126 0 C125.30937337 5.52501301 124.74014668 9.39006461 123.00390625 14.44140625 C122.61009766 15.60220703 122.21628906 16.76300781 121.81054688 17.95898438 C121.39869141 19.14814453 120.98683594 20.33730469 120.5625 21.5625 C119.75000962 23.93836048 118.9387736 26.31465037 118.12890625 28.69140625 C117.75008301 29.80016113 117.37125977 30.90891602 116.98095703 32.05126953 C115.8864627 35.34129008 114.9518704 38.66639329 114 42 C113.28097448 43.99669627 112.52694327 45.97779606 111.76757812 47.95947266 C110.49736944 51.33619154 109.37857793 54.76137663 108.25 58.1875 C107.72141411 59.78257195 107.19276576 61.3776232 106.6640625 62.97265625 C106.39110352 63.79781738 106.11814453 64.62297852 105.83691406 65.47314453 C104.72474926 68.83105167 103.60593476 72.18672283 102.48657227 75.54223633 C101.90854246 77.2750154 101.33091064 79.00792729 100.75366211 80.7409668 C99.14652708 85.56589728 97.53490525 90.3892822 95.91796875 95.2109375 C95.21586367 97.30719718 94.51403874 99.40355072 93.8125 101.5 C93.47355713 102.51280029 93.13461426 103.52560059 92.78540039 104.5690918 C90.64731867 110.98439306 88.59775071 117.41393369 86.69140625 123.90234375 C86 126 86 126 85 127 C83.33382885 127.04063832 81.66611905 127.042721 80 127 C79.67 128.32 79.34 129.64 79 131 C64.81 131 50.62 131 36 131 C32.6875 120 32.6875 120 31.6628418 116.58203125 C30.20721506 111.77486105 28.67606341 107.05200301 26.86450195 102.36474609 C24.90039424 96.99215437 23.21986281 91.51538992 21.47360229 86.06872559 C20.24347993 82.23314689 19.00643641 78.39980199 17.76953125 74.56640625 C17.40523766 73.43693069 17.40523766 73.43693069 17.03358459 72.28463745 C15.1972238 66.5966666 13.33422985 60.91815478 11.4375 55.25 C11.17590088 54.4669751 10.91430176 53.6839502 10.64477539 52.87719727 C9.13915111 48.37922912 7.6232102 43.88480812 6.10325623 39.3916626 C5.18840433 36.68400421 4.27733224 33.97508125 3.36672974 31.26599121 C2.92062072 29.94191513 2.47281762 28.61840838 2.02316284 27.29553223 C-0.37335244 20.24415794 -2.56748365 13.31295641 -4 6 C-2.35 6 -0.7 6 1 6 C0.67 4.02 0.34 2.04 0 0 Z M3 2 C4.30606774 7.87730485 5.66598883 13.48508969 7.49609375 19.18359375 C7.73030533 19.92400406 7.96451691 20.66441437 8.20582581 21.42726135 C8.94611195 23.76516997 9.69158037 26.1013834 10.4375 28.4375 C11.17688631 30.76449892 11.91517481 33.09184282 12.65298462 35.41934204 C13.12895 36.92009644 13.60580728 38.42056828 14.08358765 39.92074585 C15.30330072 43.75876112 16.47975148 47.60345105 17.59765625 51.47265625 C18.51082516 54.56393097 19.58336446 57.5060773 20.82421875 60.48046875 C23.67944136 67.43355238 25.80439035 74.62817199 28.03210449 81.80047607 C29.34761515 86.0349882 30.67580408 90.26551698 32.00390625 94.49609375 C32.26291718 95.32191956 32.5219281 96.14774536 32.78878784 96.99859619 C35.73577419 106.3750189 38.84891829 115.68998584 42 125 C55.53 125 69.06 125 83 125 C86.56229246 115.50055343 89.99387615 106.24152923 92.875 96.5625 C93.55495697 94.32130104 94.23597625 92.08042414 94.91796875 89.83984375 C95.26005371 88.71304199 95.60213867 87.58624023 95.95458984 86.42529297 C97.66687653 80.81497483 99.41773011 75.21742207 101.1875 69.625 C101.49606934 68.63443604 101.80463867 67.64387207 102.12255859 66.62329102 C104.05441222 60.54333259 106.34380535 54.71665907 108.84204102 48.84863281 C110.47713481 44.82622623 111.70085646 40.73834805 112.875 36.5625 C115.29617705 28.19836031 117.97155024 19.94486072 120.81591797 11.71508789 C121.10096191 10.87969482 121.38600586 10.04430176 121.6796875 9.18359375 C121.93476074 8.44681396 122.18983398 7.71003418 122.45263672 6.95092773 C123.13506745 4.85629859 123.13506745 4.85629859 123 2 C117.90970056 1.9259579 112.81971308 1.87144992 107.72900391 1.83520508 C105.99652651 1.8200991 104.26408746 1.79961306 102.53173828 1.77368164 C100.04450022 1.73737679 97.55776674 1.72029235 95.0703125 1.70703125 C94.29317902 1.69154739 93.51604553 1.67606354 92.71536255 1.66011047 C90.30264162 1.62430435 90.30264162 1.62430435 87 2 C85.09593792 4.85609312 84.65809682 6.01542928 84.109375 9.25 C82.93713343 15.55364924 81.35449991 21.73510889 79.77255249 27.94668579 C76.68798322 40.06717133 73.73259099 52.20854654 70.99121094 64.41210938 C69.68914431 70.17322994 68.25281249 75.86745421 66.62890625 81.546875 C65.73836809 85.02052696 65.33649601 88.4331423 65 92 C64.01 92.33 63.02 92.66 62 93 C62.08507812 91.63681641 62.08507812 91.63681641 62.171875 90.24609375 C62.16629357 84.68559289 60.60336106 79.42076254 59.25 74.0625 C58.97414062 72.94367432 58.69828125 71.82484863 58.4140625 70.67211914 C57.61693772 67.44613838 56.8096567 64.22285428 56 61 C55.63998531 59.5496378 55.28050773 58.09914203 54.921875 56.6484375 C54.14221143 53.50996127 53.35410065 50.37376197 52.5625 47.23828125 C51.89100597 44.5662946 51.22663266 41.89257577 50.5625 39.21875 C48.03872233 29.06716652 45.49364923 18.92589336 42.76171875 8.828125 C42.15040603 6.55843058 41.57009886 4.28039542 41 2 C28.46 2 15.92 2 3 2 Z " fill="#0B0C10" transform="translate(34,45)"/>
<path d="M0 0 C2.15860876 3.79241815 3.22795229 7.88384104 4.375 12.0625 C4.59414062 12.85253418 4.81328125 13.64256836 5.0390625 14.45654297 C6.58099798 20.14130946 7.84706128 25.85025515 9 31.625 C10.32600526 38.26109653 12.0160908 44.62768379 14.13574219 51.05175781 C16.01743113 56.82518792 17.42490438 62.66940751 18.74414062 68.59423828 C19.56427274 72.3999826 19.56427274 72.3999826 21 76 C21.24234375 74.94683594 21.4846875 73.89367187 21.734375 72.80859375 C23.67197136 64.44813388 25.71107702 56.13498412 27.97265625 47.85546875 C30.54651679 38.19615182 32.86322623 28.47177722 35.1875 18.75 C35.46013672 17.61175781 35.73277344 16.47351563 36.01367188 15.30078125 C36.67630913 12.53398007 37.33841133 9.76705207 38 7 C38.99 7 39.98 7 41 7 C41.33 4.69 41.66 2.38 42 0 C55.86 0 69.72 0 84 0 C83.30937337 5.52501301 82.74014668 9.39006461 81.00390625 14.44140625 C80.61009766 15.60220703 80.21628906 16.76300781 79.81054688 17.95898438 C79.39869141 19.14814453 78.98683594 20.33730469 78.5625 21.5625 C77.75000962 23.93836048 76.9387736 26.31465037 76.12890625 28.69140625 C75.75008301 29.80016113 75.37125977 30.90891602 74.98095703 32.05126953 C73.8864627 35.34129008 72.9518704 38.66639329 72 42 C71.28097448 43.99669627 70.52694327 45.97779606 69.76757812 47.95947266 C68.49736944 51.33619154 67.37857793 54.76137663 66.25 58.1875 C65.72141411 59.78257195 65.19276576 61.3776232 64.6640625 62.97265625 C64.39110352 63.79781738 64.11814453 64.62297852 63.83691406 65.47314453 C62.72474926 68.83105167 61.60593476 72.18672283 60.48657227 75.54223633 C59.90854246 77.2750154 59.33091064 79.00792729 58.75366211 80.7409668 C57.14652708 85.56589728 55.53490525 90.3892822 53.91796875 95.2109375 C50.49175905 105.43892516 47.07022775 115.6581802 44 126 C43.01 125.67 42.02 125.34 41 125 C44.75696449 112.32561061 48.74902014 99.72259699 52.70996094 87.11083984 C53.53067556 84.49730277 54.34871176 81.8829824 55.16503906 79.26806641 C56.20864624 75.92693799 57.25949091 72.58817525 58.3125 69.25 C58.61309326 68.28312256 58.91368652 67.31624512 59.22338867 66.32006836 C61.12032171 60.34199708 63.38768949 54.61843017 65.84204102 48.84863281 C67.45281795 44.88604685 68.65855469 40.86436972 69.8125 36.75 C73.20348736 25.04983431 77.10766648 13.54278217 81 2 C69.12 2.33 57.24 2.66 45 3 C44.01 6.96 43.02 10.92 42 15 C41.39018901 17.41948929 40.77964438 19.83879394 40.16796875 22.2578125 C36.63453523 36.27882465 33.16098355 50.30363421 29.9909668 64.41259766 C28.68918648 70.17360713 27.25276414 75.86762331 25.62890625 81.546875 C24.73836809 85.02052696 24.33649601 88.4331423 24 92 C22.02 92.495 22.02 92.495 20 93 C19.78085938 91.72769531 19.56171875 90.45539063 19.3359375 89.14453125 C17.50545376 78.86619234 15.25405495 68.88157427 12.28271484 58.87353516 C10.25234263 52.00336661 8.51679273 45.09891289 6.90795898 38.11889648 C5.781603 33.24379442 4.59374293 28.39372315 3.3203125 23.5546875 C3.03865234 22.47356689 2.75699219 21.39244629 2.46679688 20.27856445 C1.91772144 18.18083511 1.35954494 16.08546064 0.79101562 13.99291992 C-0.50669068 8.9963293 -1.47043611 5.11192789 0 0 Z " fill="#150F0D" transform="translate(76,45)"/>
<path d="M0 0 C2.04003906 3.73486328 2.04003906 3.73486328 1.6796875 6.12109375 C1.41414063 6.88550781 1.14859375 7.64992188 0.875 8.4375 C0.58367187 9.31535156 0.29234375 10.19320312 -0.0078125 11.09765625 C-0.33523437 12.05542969 -0.66265625 13.01320313 -1 14 C-1.67472309 16.1224557 -2.34108803 18.24758268 -3 20.375 C-3.33773437 21.46167969 -3.67546875 22.54835938 -4.0234375 23.66796875 C-5.2797263 27.95442613 -6.30804999 32.27986906 -7.2890625 36.63671875 C-8 39 -8 39 -10 41 C-10.59276357 42.60272355 -11.11102972 44.23349032 -11.5859375 45.875 C-11.87726563 46.86113281 -12.16859375 47.84726563 -12.46875 48.86328125 C-12.7678125 49.89839844 -13.066875 50.93351562 -13.375 52 C-15.0345087 57.72016495 -16.67621664 63.37891971 -18.95703125 68.88671875 C-21.5058871 75.06080539 -23.37924213 81.42432514 -25.3125 87.8125 C-29.0182248 99.94098104 -32.91883168 111.99270414 -37 124 C-37.99 123.67 -38.98 123.34 -40 123 C-36.24303551 110.32561061 -32.25097986 97.72259699 -28.29003906 85.11083984 C-27.46932444 82.49730277 -26.65128824 79.8829824 -25.83496094 77.26806641 C-24.79135376 73.92693799 -23.74050909 70.58817525 -22.6875 67.25 C-22.38690674 66.28312256 -22.08631348 65.31624512 -21.77661133 64.32006836 C-19.87967829 58.34199708 -17.61231051 52.61843017 -15.15795898 46.84863281 C-13.54718205 42.88604685 -12.34144531 38.86436972 -11.1875 34.75 C-7.79764041 23.05372551 -3.90849041 11.53139033 0 0 Z " fill="#3C2F11" transform="translate(157,47)"/>
<path d="M0 0 C13.86 0 27.72 0 42 0 C42 1.65 42 3.3 42 5 C41.34 5.33 40.68 5.66 40 6 C40 4.68 40 3.36 40 2 C27.79 2.33 15.58 2.66 3 3 C2.01 6.96 1.02 10.92 0 15 C-1.66666667 21.66666667 -3.33333333 28.33333333 -5 35 C-6.32 34.34 -7.64 33.68 -9 33 C-8.56901343 24.03547936 -6.30110566 15.62647053 -4 7 C-3.01 7 -2.02 7 -1 7 C-0.67 4.69 -0.34 2.38 0 0 Z " fill="#0A1738" transform="translate(118,45)"/>
<path d="M0 0 C2.15860876 3.79241815 3.22795229 7.88384104 4.375 12.0625 C4.59414062 12.85253418 4.81328125 13.64256836 5.0390625 14.45654297 C6.58099798 20.14130946 7.84706128 25.85025515 9 31.625 C10.32630632 38.26260317 12.01552903 44.63125129 14.13793945 51.05615234 C16.00133711 56.76807481 17.38723085 62.54792159 18.65625 68.41845703 C19.26880806 71.19294554 19.83862302 73.69343771 21.16796875 76.21875 C22.71971791 79.54080454 21.0093914 82.63536199 20 86 C18.33213694 82.95635028 17.4192955 80.07847239 16.6328125 76.703125 C16.38909912 75.67018311 16.14538574 74.63724121 15.89428711 73.57299805 C15.64042236 72.47640869 15.38655762 71.37981934 15.125 70.25 C14.58779341 67.96992153 14.05003377 65.68997328 13.51171875 63.41015625 C13.25181152 62.30430176 12.9919043 61.19844727 12.72412109 60.05908203 C11.37851753 54.37451946 9.94559462 48.71257009 8.51513672 43.04882812 C7.93382816 40.73681798 7.35913563 38.42321539 6.78515625 36.109375 C6.5739917 35.25980225 6.36282715 34.41022949 6.14526367 33.53491211 C5.71855173 31.81724718 5.29291516 30.09931471 4.8684082 28.38110352 C3.88772976 24.43812622 2.87785071 20.51135718 1.7578125 16.60546875 C1.56638672 15.92943604 1.37496094 15.25340332 1.17773438 14.55688477 C0.662572 12.75631944 0.13264046 10.9599979 -0.3984375 9.1640625 C-1.04390294 5.76908195 -0.77804094 3.34456559 0 0 Z " fill="#3E3A12" transform="translate(76,45)"/>
<path d="M0 0 C1.46548259 2.74274516 2.45730928 5.32376761 3.21875 8.3359375 C3.42886719 9.15320313 3.63898438 9.97046875 3.85546875 10.8125 C4.06816406 11.658125 4.28085938 12.50375 4.5 13.375 C6.62639155 22.40301833 6.62639155 22.40301833 10 31 C9.66015625 32.9453125 9.66015625 32.9453125 9.0625 35.125 C8.86785156 35.84945312 8.67320313 36.57390625 8.47265625 37.3203125 C8.31667969 37.87460938 8.16070312 38.42890625 8 39 C6.27751002 35.87475263 5.37393153 32.89108863 4.5625 29.421875 C4.17964844 27.80345703 4.17964844 27.80345703 3.7890625 26.15234375 C3.52867188 25.02957031 3.26828125 23.90679687 3 22.75 C2.47945394 20.53639076 1.95862673 18.32284761 1.4375 16.109375 C1.19257812 15.06330078 0.94765625 14.01722656 0.6953125 12.93945312 C-0.16937461 9.28396406 -1.07642652 5.64101083 -2 2 C-1.34 2 -0.68 2 0 2 C0 1.34 0 0.68 0 0 Z " fill="#222910" transform="translate(88,92)"/>
<path d="M0 0 C0.33 0 0.66 0 1 0 C0.26990593 5.33748381 -0.61286711 10.63500441 -1.5625 15.9375 C-1.70107422 16.71673828 -1.83964844 17.49597656 -1.98242188 18.29882812 C-2.32056157 20.1994064 -2.6601317 22.09973008 -3 24 C-4.32 24.33 -5.64 24.66 -7 25 C-7.34534206 18.15711098 -7.59180355 11.09802468 -4 5 C-1.890625 3.75390625 -1.890625 3.75390625 0 3 C0 2.01 0 1.02 0 0 Z " fill="#14131D" transform="translate(103,113)"/>
<path d="M0 0 C13.53 0 27.06 0 41 0 C41 1.65 41 3.3 41 5 C40.34 5.33 39.68 5.66 39 6 C39 4.68 39 3.36 39 2 C26.46 2 13.92 2 1 2 C0.67 1.34 0.34 0.68 0 0 Z " fill="#020401" transform="translate(119,45)"/>
<path d="M0 0 C13.86 0 27.72 0 42 0 C41.67 0.99 41.34 1.98 41 3 C27.47 3 13.94 3 0 3 C0 2.01 0 1.02 0 0 Z " fill="#010000" transform="translate(34,45)"/>
<path d="M0 0 C0.66 0 1.32 0 2 0 C2.57514499 6.10064504 0.48662021 11.21428294 -1.5 16.875 C-2.00080078 18.33679688 -2.00080078 18.33679688 -2.51171875 19.828125 C-3.3330373 22.22168192 -4.16264651 24.61201545 -5 27 C-5.99 26.67 -6.98 26.34 -8 26 C-5.42867609 17.30348988 -2.71587276 8.652148 0 0 Z " fill="#251E0F" transform="translate(125,144)"/>
<path d="M0 0 C0.85696068 3.31262111 1.46228519 6.62007831 2 10 C1.34 10 0.68 10 0 10 C0.20625 10.886875 0.4125 11.77375 0.625 12.6875 C1.03551518 16.31371746 0.78369611 17.85729733 -1 21 C-3.125 22.8125 -3.125 22.8125 -5 24 C-4.39496146 18.3444819 -3.37814297 12.99786009 -1.9375 7.5 C-1.75123047 6.77296875 -1.56496094 6.0459375 -1.37304688 5.296875 C-0.91973545 3.53012276 -0.4604998 1.76489225 0 0 Z " fill="#200D03" transform="translate(114,52)"/>
<path d="M0 0 C0.66 0 1.32 0 2 0 C2.30487805 7.92682927 2.30487805 7.92682927 0 11 C-2.625 12.75 -2.625 12.75 -5 14 C-4.34 10.37 -3.68 6.74 -3 3 C-2.34 3 -1.68 3 -1 3 C-0.67 2.01 -0.34 1.02 0 0 Z " fill="#200D04" transform="translate(103,105)"/>
<path d="M0 0 C0.33 0 0.66 0 1 0 C0.45544122 4.53798983 -0.10614424 8.81358201 -2 13 C-4.125 13.875 -4.125 13.875 -6 14 C-5.38857603 6.54062751 -5.38857603 6.54062751 -3.5625 4 C-2 3 -2 3 0 3 C0 2.01 0 1.02 0 0 Z " fill="#081222" transform="translate(103,113)"/>
<path d="M0 0 C0.66 0 1.32 0 2 0 C1.32584613 5.2584002 -0.24265549 10.02638346 -2 15 C-2.66 15 -3.32 15 -4 15 C-3.50341703 9.33895411 -2.45489316 5.12325529 0 0 Z " fill="#352413" transform="translate(137,109)"/>
<path d="M0 0 C1.32 0 2.64 0 4 0 C3.34 3.3 2.68 6.6 2 10 C1.67 8.68 1.34 7.36 1 6 C-0.32 6.99 -1.64 7.98 -3 9 C-2.5020163 5.26512223 -2.12508244 3.18762365 0 0 Z " fill="#1D1825" transform="translate(104,99)"/>
<path d="M0 0 C0.33 0 0.66 0 1 0 C1.20413361 5.73842251 1.27141454 10.60539047 -1 16 C-1.33 15.34 -1.66 14.68 -2 14 C-2.66 14 -3.32 14 -4 14 C-2.66666667 9.33333333 -1.33333333 4.66666667 0 0 Z " fill="#554619" transform="translate(141,95)"/>
<path d="M0 0 C2.21399303 3.79541663 3.00980198 7.75629421 4 12 C3.01 12.66 2.02 13.32 1 14 C0.01 10.04 -0.98 6.08 -2 2 C-1.34 2 -0.68 2 0 2 C0 1.34 0 0.68 0 0 Z " fill="#4A4515" transform="translate(88,92)"/>
<path d="M0 0 C0.66 0 1.32 0 2 0 C0.68 5.28 -0.64 10.56 -2 16 C-2.33 16 -2.66 16 -3 16 C-3.33266291 9.79029227 -2.45029331 5.71735105 0 0 Z " fill="#161A0E" transform="translate(145,86)"/>
<path d="M0 0 C1.58203125 1.11328125 1.58203125 1.11328125 3 3 C2.63671875 5.91796875 2.63671875 5.91796875 1.6875 9.1875 C1.38199219 10.27417969 1.07648438 11.36085938 0.76171875 12.48046875 C0.51035156 13.31191406 0.25898437 14.14335938 0 15 C-0.33 15 -0.66 15 -1 15 C-1.02703381 13.06257659 -1.04641125 11.12504521 -1.0625 9.1875 C-1.07410156 8.10855469 -1.08570312 7.02960937 -1.09765625 5.91796875 C-1 3 -1 3 0 0 Z " fill="#3C3736" transform="translate(118,45)"/>
<path d="M0 0 C0.99 0.66 1.98 1.32 3 2 C2.34 5.3 1.68 8.6 1 12 C-0.95216435 8.09567131 -1.50639991 5.27786748 -2 1 C-1.34 0.67 -0.68 0.34 0 0 Z " fill="#4A3412" transform="translate(95,119)"/>
<path d="M0 0 C0.99 0.33 1.98 0.66 3 1 C2.01 4.3 1.02 7.6 0 11 C-0.99 10.67 -1.98 10.34 -3 10 C-2.01 6.7 -1.02 3.4 0 0 Z " fill="#413B11" transform="translate(120,160)"/>
<path d="M0 0 C2 1 2 1 3.125 3.6875 C3.98889074 6.9579435 4.16013991 9.63706182 4 13 C3.34 13 2.68 13 2 13 C-0.28571429 4.57142857 -0.28571429 4.57142857 0 0 Z " fill="#23160B" transform="translate(84,81)"/>
<path d="M0 0 C0.85696068 3.31262111 1.46228519 6.62007831 2 10 C1.34 10 0.68 10 0 10 C-0.33 10.99 -0.66 11.98 -1 13 C-2.07310858 9.72814447 -1.89263102 7.57052408 -1.0625 4.25 C-0.86785156 3.45078125 -0.67320313 2.6515625 -0.47265625 1.828125 C-0.31667969 1.22484375 -0.16070312 0.6215625 0 0 Z " fill="#3E1801" transform="translate(114,52)"/>
<path d="M0 0 C0.66 0 1.32 0 2 0 C2 2.31 2 4.62 2 7 C0.68 6.67 -0.64 6.34 -2 6 C-1.125 1.125 -1.125 1.125 0 0 Z " fill="#030612" transform="translate(103,105)"/>
<path d="M0 0 C0.66 0 1.32 0 2 0 C2.66 2.97 3.32 5.94 4 9 C3.01 9.33 2.02 9.66 1 10 C0.67 6.7 0.34 3.4 0 0 Z " fill="#2C2C13" transform="translate(82,73)"/>
<path d="M0 0 C0.96661363 3.12180401 0.98988909 5.52083795 0.5625 8.75 C0.40974609 9.94882813 0.40974609 9.94882813 0.25390625 11.171875 C0.12822266 12.07679688 0.12822266 12.07679688 0 13 C-2.58772586 9.1184112 -1.87719799 7.46573523 -1 3 C-0.67 2.01 -0.34 1.02 0 0 Z " fill="#60461C" transform="translate(128,134)"/>
<path d="M0 0 C0.66 0 1.32 0 2 0 C2 0.66 2 1.32 2 2 C2.66 2 3.32 2 4 2 C4 2.99 4 3.98 4 5 C2.35 5.33 0.7 5.66 -1 6 C-0.67 4.02 -0.34 2.04 0 0 Z " fill="#2C1305" transform="translate(104,94)"/>
<path d="M0 0 C0.99 0 1.98 0 3 0 C2.67 2.31 2.34 4.62 2 7 C1.01 6.67 0.02 6.34 -1 6 C-1.33 5.01 -1.66 4.02 -2 3 C-1.34 2.01 -0.68 1.02 0 0 Z " fill="#0B131F" transform="translate(107,90)"/>
<path d="M0 0 C0.74955438 2.9982175 1.41070989 5.96936513 2 9 C1.01 9.495 1.01 9.495 0 10 C-0.66 9.67 -1.32 9.34 -2 9 C-1.34 6.03 -0.68 3.06 0 0 Z " fill="#705A21" transform="translate(147,77)"/>
<path d="M0 0 C0.33 0.66 0.66 1.32 1 2 C1.66 2 2.32 2 3 2 C2.34 4.31 1.68 6.62 1 9 C0.34 8.34 -0.32 7.68 -1 7 C-0.625 3.375 -0.625 3.375 0 0 Z " fill="#444417" transform="translate(152,62)"/>
<path d="M0 0 C1.39195915 4.17587745 -0.17676781 6.13474776 -2 10 C-3.26066301 6.21801096 -2.42292658 4.63636792 -1 1 C-0.67 0.67 -0.34 0.34 0 0 Z " fill="#19280C" transform="translate(131,131)"/>
<path d="M0 0 C0.33 0 0.66 0 1 0 C0.67 2.97 0.34 5.94 0 9 C-0.66 9 -1.32 9 -2 9 C-1.125 1.125 -1.125 1.125 0 0 Z " fill="#301E12" transform="translate(155,55)"/>
<path d="M0 0 C0.99 0.33 1.98 0.66 3 1 C3 1.99 3 2.98 3 4 C2.01 4 1.02 4 0 4 C-0.33 4.99 -0.66 5.98 -1 7 C-1.33 5.68 -1.66 4.36 -2 3 C-1.34 3 -0.68 3 0 3 C0 2.01 0 1.02 0 0 Z " fill="#180B02" transform="translate(107,86)"/>
<path d="M0 0 C0.66 0 1.32 0 2 0 C2 2.64 2 5.28 2 8 C1.34 8 0.68 8 0 8 C-0.98120464 4.94736336 -0.98120464 3.05263664 0 0 Z " fill="#010205" transform="translate(115,52)"/>
<path d="M0 0 C1.85776765 3.13498292 2.20140476 5.37471432 2 9 C1.34 9 0.68 9 0 9 C-1.125 3.375 -1.125 3.375 0 0 Z " fill="#321E0E" transform="translate(76,45)"/>
</svg>
